Coordinates
version=1
nRows=38
nColumns=38
inDegrees=no

Units are S.I. units (second, meters, Newtons, ...)
If the header above contains a line with 'inDegrees', this indicates whether rotational values are in degrees (yes) or radians (no).

endheader
time	pelvis_tilt	pelvis_list	pelvis_rotation	pelvis_tx	pelvis_ty	pelvis_tz	hip_flexion_r	hip_adduction_r	hip_rotation_r	knee_angle_r	ankle_angle_r	subtalar_angle_r	mtp_angle_r	hip_flexion_l	hip_adduction_l	hip_rotation_l	knee_angle_l	ankle_angle_l	subtalar_angle_l	mtp_angle_l	lumbar_extension	lumbar_bending	lumbar_rotation	arm_flex_r	arm_add_r	arm_rot_r	elbow_flex_r	pro_sup_r	wrist_flex_r	wrist_dev_r	arm_flex_l	arm_add_l	arm_rot_l	elbow_flex_l	pro_sup_l	wrist_flex_l	wrist_dev_l
22.58	1.74723	1.46971	-0.132953	0.848469	-0.555063	0.978051	-0.0499661	0.10266	-0.257923	0.175487	0.131508	0	0	0.176076	-0.21259	-0.192239	0.343204	0.152296	0	0	-0.180397	0.284261	0.0158248	0.547379	-0.177148	0.242478	1.44426	1.5708	0	0	0.500322	-0.179064	0.0033781	1.26307	0.770135	0	0
22.59	1.75008	1.47308	-0.13927	0.848286	-0.55376	0.977825	-0.0496794	0.0999803	-0.253862	0.176999	0.130382	0	0	0.177007	-0.210154	-0.189428	0.337319	0.144023	0	0	-0.180073	0.279222	0.016512	0.551969	-0.176133	0.250936	1.4364	1.5708	0	0	0.504665	-0.182751	0.00345552	1.25639	0.76912	0	0
22.6	1.75287	1.47646	-0.145472	0.848059	-0.552457	0.977572	-0.0488875	0.0970358	-0.250194	0.179484	0.129846	0	0	0.178011	-0.207708	-0.186793	0.331076	0.135038	0	0	-0.179691	0.274225	0.0171518	0.556566	-0.175857	0.259717	1.42912	1.5708	0	0	0.509249	-0.186084	0.00327759	1.24961	0.768661	0	0
22.61	1.75426	1.47941	-0.149644	0.847754	-0.551181	0.977284	-0.047485	0.0942681	-0.247594	0.183055	0.129524	0	0	0.179667	-0.20573	-0.183766	0.325338	0.1263	0	0	-0.179224	0.269846	0.0173551	0.561533	-0.175543	0.267704	1.42169	1.5708	0	0	0.513594	-0.18957	0.00316192	1.24442	0.768425	0	0
22.62	1.75696	1.48223	-0.155402	0.847426	-0.549948	0.977042	-0.0456462	0.0912088	-0.245356	0.187966	0.130325	0	0	0.181193	-0.203803	-0.180603	0.319498	0.116872	0	0	-0.178997	0.265593	0.0176504	0.567466	-0.175169	0.275453	1.41305	1.5708	0	0	0.517871	-0.193365	0.00353576	1.2396	0.768087	0	0
22.63	1.7802	1.48406	-0.182479	0.84696	-0.548808	0.976854	-0.0450946	0.0881259	-0.243401	0.194688	0.133243	0	0	0.180563	-0.202646	-0.179023	0.313622	0.108348	0	0	-0.181772	0.263738	0.0191149	0.589925	-0.172718	0.331717	1.42335	1.5708	0	0	0.522677	-0.196832	0.00437607	1.23382	0.766963	0	0
22.64	1.78834	1.48595	-0.193796	0.846518	-0.547598	0.976665	-0.043687	0.0853626	-0.241265	0.200231	0.135314	0	0	0.181733	-0.201805	-0.177618	0.308136	0.101467	0	0	-0.182294	0.260597	0.0191157	0.597092	-0.172645	0.339984	1.41466	1.5708	0	0	0.526606	-0.19992	0.00458071	1.22911	0.766009	0	0
22.65	1.81935	1.46581	-0.231765	0.845673	-0.54721	0.978774	-0.0344622	0.0943528	-0.28411	0.23584	0.138392	0	0	0.175808	-0.224004	-0.177717	0.301962	0.0925607	0	0	-0.196599	0.283066	0.0274113	0.610626	-0.17829	0.35191	1.40576	1.5708	0	0	0.53155	-0.194834	-0.00189037	1.2201	0.76553	0	0
22.66	1.80548	1.48916	-0.218571	0.845565	-0.545144	0.976356	-0.0407166	0.079016	-0.237714	0.212888	0.141722	0	0	0.183553	-0.200903	-0.177409	0.296836	0.0874935	0	0	-0.183405	0.254974	0.0194832	0.612808	-0.171858	0.356758	1.39431	1.5708	0	0	0.534112	-0.205411	0.00496111	1.21919	0.760175	0	0
22.67	1.81166	1.48996	-0.228207	0.845022	-0.543912	0.976226	-0.0398627	0.0766383	-0.235908	0.21792	0.144325	0	0	0.184889	-0.20128	-0.177474	0.291559	0.080575	0	0	-0.183781	0.253036	0.0194115	0.619887	-0.170722	0.362097	1.38533	1.5708	0	0	0.537594	-0.207767	0.0055382	1.21644	0.759618	0	0
22.68	1.81901	1.49087	-0.239601	0.84449	-0.54268	0.976118	-0.0390375	0.0739982	-0.233899	0.223083	0.147372	0	0	0.185972	-0.201566	-0.178302	0.286303	0.0724188	0	0	-0.184179	0.250772	0.019482	0.627164	-0.169371	0.367547	1.37573	1.5708	0	0	0.540945	-0.210328	0.00633626	1.21441	0.758998	0	0
22.69	1.82528	1.49165	-0.250426	0.843966	-0.541413	0.976006	-0.0383521	0.0714912	-0.231864	0.227755	0.149835	0	0	0.186937	-0.20214	-0.180369	0.280927	0.0631933	0	0	-0.184459	0.248386	0.019906	0.634	-0.167882	0.3724	1.36662	1.5708	0	0	0.544211	-0.212871	0.00696915	1.21292	0.758229	0	0
22.7	1.8288	1.49226	-0.258928	0.843454	-0.540129	0.975882	-0.0377782	0.0692915	-0.229491	0.231836	0.152023	0	0	0.187893	-0.202919	-0.183066	0.27541	0.0535376	0	0	-0.184441	0.245996	0.0205674	0.640529	-0.165961	0.376591	1.35764	1.5708	0	0	0.547314	-0.215486	0.00763371	1.21134	0.757219	0	0
22.71	1.83037	1.49283	-0.265748	0.842922	-0.538827	0.975748	-0.0373792	0.0672981	-0.226444	0.23531	0.154412	0	0	0.18887	-0.203679	-0.186096	0.270111	0.0439614	0	0	-0.184174	0.243542	0.0213226	0.646763	-0.16362	0.380019	1.34879	1.5708	0	0	0.550025	-0.218131	0.00854766	1.20926	0.755786	0	0
22.72	1.76935	1.50518	-0.210977	0.842809	-0.537266	0.974342	-0.0276707	0.0502656	-0.235433	0.245778	0.168613	0	0	0.196662	-0.193499	-0.1908	0.264957	0.0355929	0	0	-0.173141	0.226692	0.0190288	0.636288	-0.161907	0.339048	1.319	1.5708	0	0	0.550669	-0.224978	0.0111467	1.20966	0.754386	0	0
22.73	1.80823	1.49502	-0.254688	0.841944	-0.535922	0.975454	-0.0355291	0.0631645	-0.220143	0.239988	0.157777	0	0	0.191747	-0.204261	-0.193019	0.258474	0.0265577	0	0	-0.179718	0.236077	0.0213793	0.64208	-0.159355	0.338997	1.31053	1.5708	0	0	0.552975	-0.223667	0.00806399	1.20536	0.751	0	0
22.74	1.80434	1.49542	-0.256565	0.841391	-0.534393	0.975313	-0.0361997	0.0617773	-0.216258	0.240651	0.158676	0	0	0.192087	-0.205005	-0.197487	0.253057	0.0195891	0	0	-0.178483	0.233515	0.021822	0.645839	-0.154828	0.340748	1.30249	1.5708	0	0	0.553893	-0.226199	0.00660362	1.20473	0.749168	0	0
22.75	1.8251	1.49567	-0.28277	0.840806	-0.532896	0.975223	-0.0391573	0.0600992	-0.212155	0.240782	0.159944	0	0	0.190433	-0.205219	-0.202136	0.248102	0.0128385	0	0	-0.177371	0.229854	0.0278926	0.645108	-0.154023	0.336144	1.29798	1.5708	0	0	0.562641	-0.269876	0.248589	1.12921	1.5708	0	0
22.76	1.80236	1.49587	-0.266395	0.840037	-0.531181	0.975007	-0.038908	0.0590204	-0.206765	0.241005	0.160882	0	0	0.191583	-0.205972	-0.207349	0.24346	0.00567133	0	0	-0.176225	0.228285	0.0232767	0.651598	-0.145601	0.344044	1.28684	1.5708	0	0	0.553624	-0.23128	0.00841391	1.20754	0.814201	0	0
22.77	1.81774	1.49577	-0.287285	0.83935	-0.529504	0.974905	-0.0419415	0.0576062	-0.202214	0.240701	0.162027	0	0	0.189747	-0.20589	-0.211988	0.239291	-0.00249628	0	0	-0.174229	0.224999	0.029659	0.649187	-0.144783	0.340084	1.28166	1.5708	0	0	0.560169	-0.274571	0.243268	1.13078	1.5708	0	0
22.78	1.81227	1.49563	-0.287609	0.838517	-0.527655	0.97476	-0.0433372	0.0563347	-0.19743	0.240725	0.16287	0	0	0.189335	-0.205903	-0.2167	0.236377	-0.0107078	0	0	-0.172028	0.222792	0.0299712	0.650252	-0.140004	0.343067	1.27323	1.5708	0	0	0.557122	-0.275276	0.236524	1.13278	1.5708	0	0
22.79	1.79153	1.49547	-0.272805	0.837541	-0.525656	0.974558	-0.0432871	0.0550401	-0.192788	0.241619	0.163868	0	0	0.189884	-0.205805	-0.220816	0.234651	-0.0168402	0	0	-0.169963	0.221226	0.025565	0.654216	-0.131926	0.350699	1.26232	1.5708	0	0	0.547999	-0.23673	0.00374195	1.21134	0.833343	0	0
22.8	1.80671	1.49501	-0.293078	0.836564	-0.52373	0.974467	-0.045964	0.0532479	-0.188977	0.24279	0.165286	0	0	0.187883	-0.204883	-0.223591	0.234599	-0.0195263	0	0	-0.167332	0.218404	0.0321046	0.650638	-0.131443	0.346548	1.25776	1.5708	0	0	0.552491	-0.277496	0.23089	1.1343	1.5708	0	0
22.81	1.80695	1.49437	-0.298523	0.835434	-0.521633	0.974356	-0.0474205	0.0516646	-0.184898	0.244518	0.166601	0	0	0.186482	-0.203674	-0.224992	0.235251	-0.0187804	0	0	-0.165014	0.216621	0.0329221	0.650528	-0.128115	0.348944	1.25157	1.5708	0	0	0.548474	-0.276476	0.221704	1.13574	1.5708	0	0
22.82	1.81477	1.4936	-0.311318	0.834235	-0.519442	0.974296	-0.0494183	0.0499069	-0.181016	0.246677	0.168077	0	0	0.184042	-0.201712	-0.22518	0.236457	-0.0165437	0	0	-0.162961	0.214552	0.0340381	0.649711	-0.126335	0.351767	1.24621	1.5708	0	0	0.545485	-0.275839	0.216359	1.13673	1.5708	0	0
22.83	1.82631	1.49266	-0.327487	0.832938	-0.517157	0.974261	-0.0517208	0.0480474	-0.177495	0.249106	0.169507	0	0	0.180977	-0.199121	-0.223943	0.238419	-0.0149922	0	0	-0.160996	0.212415	0.0352132	0.648604	-0.125209	0.354481	1.24046	1.5708	0	0	0.542721	-0.274741	0.21176	1.13815	1.5708	0	0
22.84	1.83894	1.49146	-0.344255	0.83151	-0.514771	0.974223	-0.0541604	0.04621	-0.174783	0.251921	0.170983	0	0	0.177386	-0.196097	-0.222142	0.240401	-0.0149576	0	0	-0.158848	0.210482	0.036342	0.64705	-0.124364	0.356284	1.23494	1.5708	0	0	0.53979	-0.273391	0.20799	1.14054	1.5708	0	0
22.85	1.85137	1.48973	-0.360571	0.829981	-0.512225	0.974161	-0.057061	0.0448562	-0.172348	0.25457	0.172295	0	0	0.17319	-0.193402	-0.221509	0.242547	-0.0141194	0	0	-0.156398	0.209126	0.0374259	0.645108	-0.123919	0.357586	1.22992	1.5708	0	0	0.536172	-0.271751	0.204134	1.14435	1.5708	0	0
22.86	1.85036	1.48743	-0.363842	0.828335	-0.509394	0.974043	-0.0595141	0.0442834	-0.169536	0.256884	0.173245	0	0	0.169105	-0.191738	-0.224297	0.244594	-0.0107699	0	0	-0.154166	0.209009	0.0334429	0.646086	-0.120502	0.363621	1.22276	1.5708	0	0	0.525466	-0.230755	-0.0258326	1.23107	0.832405	0	0
22.87	1.87979	1.48431	-0.396936	0.826712	-0.506498	0.974037	-0.0653134	0.0436341	-0.167408	0.258643	0.174403	0	0	0.161543	-0.190047	-0.229993	0.245578	-0.00698195	0	0	-0.15097	0.208005	0.0401523	0.6388	-0.12513	0.357236	1.22204	1.5708	0	0	0.527914	-0.26856	0.200512	1.15462	1.5708	0	0
22.88	1.88903	1.48107	-0.410304	0.824999	-0.503454	0.97395	-0.0697407	0.0436762	-0.164018	0.260117	0.174988	0	0	0.154415	-0.189033	-0.237596	0.244137	-0.005993	0	0	-0.147773	0.207933	0.0413309	0.634868	-0.126289	0.356294	1.2188	1.5708	0	0	0.52262	-0.265688	0.196277	1.16051	1.5708	0	0
22.89	1.89435	1.47804	-0.419582	0.823204	-0.500408	0.973817	-0.0734744	0.0435788	-0.16057	0.262153	0.175621	0	0	0.146352	-0.187469	-0.243455	0.239247	-0.00766893	0	0	-0.144229	0.207523	0.0427729	0.629982	-0.127863	0.353808	1.21775	1.5708	0	0	0.518543	-0.263133	0.195799	1.16513	1.5708	0	0
22.9	1.8952	1.47525	-0.424055	0.821309	-0.497361	0.973647	-0.0758351	0.04306	-0.158427	0.266044	0.176849	0	0	0.137793	-0.185563	-0.246776	0.232583	-0.00756948	0	0	-0.140083	0.20694	0.0436264	0.624784	-0.129074	0.349684	1.21672	1.5708	0	0	0.514605	-0.2603	0.195676	1.16887	1.5708	0	0
22.91	2.01689	1.49206	-0.527551	0.817166	-0.493691	0.972905	-0.0900125	0.0238306	-0.138238	0.252814	0.179377	0	0	0.129383	-0.16053	-0.274595	0.211749	-0.0149762	0	0	-0.1305	0.183237	0.0203515	0.616497	-0.125947	0.340075	1.21493	1.5708	0	0	0.511962	-0.26225	0.200866	1.17354	1.5708	0	0
22.92	1.89679	1.47072	-0.431636	0.817193	-0.491222	0.973356	-0.0798193	0.0408169	-0.15346	0.27427	0.178595	0	0	0.120734	-0.181514	-0.25169	0.219697	0.000103358	0	0	-0.131039	0.204775	0.0435319	0.613915	-0.131497	0.339205	1.21542	1.5708	0	0	0.506943	-0.254308	0.19811	1.17368	1.5708	0	0
22.93	1.8859	1.46946	-0.423297	0.814976	-0.488209	0.97318	-0.0786057	0.0388308	-0.15244	0.281594	0.180038	0	0	0.115524	-0.180056	-0.252739	0.216588	0.00487992	0	0	-0.12506	0.203283	0.0428934	0.608331	-0.13353	0.334501	1.21565	1.5708	0	0	0.502976	-0.250436	0.199146	1.17561	1.5708	0	0
22.94	1.88082	1.4689	-0.420388	0.812684	-0.485237	0.973136	-0.0775942	0.0359468	-0.150781	0.288709	0.180743	0	0	0.111371	-0.17819	-0.252498	0.215677	0.00829018	0	0	-0.11954	0.200659	0.0416675	0.602846	-0.135089	0.328776	1.2149	1.5708	0	0	0.499128	-0.246371	0.199832	1.17875	1.5708	0	0
22.95	1.87743	1.46907	-0.419047	0.810301	-0.482325	0.973221	-0.0758237	0.0321066	-0.149144	0.296791	0.180996	0	0	0.108348	-0.175832	-0.25189	0.216384	0.0116551	0	0	-0.114092	0.197221	0.039941	0.597584	-0.136542	0.323075	1.21355	1.5708	0	0	0.494794	-0.241769	0.199086	1.18292	1.5708	0	0
